<?xml version="1.0" encoding="UTF-8" standalone="no"?>
<!-- Created with Inkscape (http://www.inkscape.org/) -->

<svg
   width="1000.0001"
   height="500"
   viewBox="0 0 264.58335 132.29166"
   version="1.1"
   id="svg1"
   xml:space="preserve"
   inkscape:export-filename="cover.svg"
   inkscape:export-xdpi="96"
   inkscape:export-ydpi="96"
   xmlns:inkscape="http://www.inkscape.org/namespaces/inkscape"
   xmlns:sodipodi="http://sodipodi.sourceforge.net/DTD/sodipodi-0.dtd"
   xmlns="http://www.w3.org/2000/svg"
   xmlns:svg="http://www.w3.org/2000/svg"><sodipodi:namedview
     id="namedview1"
     pagecolor="#ffffff"
     bordercolor="#000000"
     borderopacity="0.25"
     inkscape:showpageshadow="2"
     inkscape:pageopacity="0.0"
     inkscape:pagecheckerboard="0"
     inkscape:deskcolor="#d1d1d1"
     inkscape:document-units="mm"
     inkscape:zoom="0.4894542"
     inkscape:cx="890.78816"
     inkscape:cy="238.02023"
     inkscape:window-width="1920"
     inkscape:window-height="991"
     inkscape:window-x="-9"
     inkscape:window-y="-9"
     inkscape:window-maximized="1"
     inkscape:current-layer="g1" /><defs
     id="defs1" /><g
     inkscape:label="Layer 1"
     inkscape:groupmode="layer"
     id="layer1"><g
       id="g1"
       transform="translate(4.6704104,9.6745563)"><g
         id="layer2"
         inkscape:label="basket"
         style="display:inline"
         transform="translate(-9.7640325,-7.641715)"><path
           d="m 49.203432,37.128585 m 8.732806,35.491366 C 57.579832,72.492908 57.015416,72.168157 56.681977,71.898281 56.348531,71.628403 55.896871,71.060067 55.678283,70.63531 55.288703,69.878276 55.27005,69.629151 54.733696,58.019378 54.432763,51.50537 54.178286,46.166317 54.1682,46.154813 c -0.01008,-0.0115 -0.256773,-0.0686 -0.548196,-0.12689 -0.291424,-0.05829 -0.770283,-0.289349 -1.064126,-0.513475 -0.293849,-0.224126 -0.657814,-0.667861 -0.808813,-0.986076 -0.151007,-0.318215 -0.274556,-0.822008 -0.274556,-1.119541 0,-0.297533 0.09158,-0.850908 0.203505,-1.229721 0.128207,-0.433938 0.515137,-1.000392 1.045839,-1.531097 0.530709,-0.530706 1.097156,-0.917632 1.531098,-1.045843 0.3931,-0.116146 1.668066,-0.203498 2.970188,-0.203498 1.999533,0 2.281439,-0.03379 2.281439,-0.273422 0,-0.150382 0.09158,-0.583361 0.203498,-0.962175 0.12776,-0.432394 0.51703,-1.003619 1.045846,-1.534691 0.586014,-0.588515 1.074391,-0.910635 1.604891,-1.058548 0.536404,-0.149558 1.777008,-0.196436 4.18337,-0.158071 3.126998,0.04986 3.478313,0.08556 4.090159,0.415718 0.36814,0.198648 0.86782,0.575151 1.11041,0.836674 0.242583,0.261522 0.556152,0.703999 0.696828,0.983282 0.140661,0.279282 0.308241,0.787562 0.372387,1.12951 l 0.116637,0.621723 h 2.262821 c 1.2875,0 2.55968,0.08771 2.951571,0.203498 0.433935,0.128211 1.000389,0.515137 1.531091,1.045843 0.530709,0.530705 0.917632,1.097159 1.045846,1.531097 0.111922,0.378813 0.203498,0.932188 0.203498,1.229721 0,0.297533 -0.123549,0.801326 -0.274556,1.119541 -0.150999,0.318215 -0.514964,0.76195 -0.808813,0.986076 -0.293843,0.224126 -0.772702,0.455191 -1.064126,0.513475 -0.291423,0.05829 -0.538117,0.115386 -0.548196,0.12689 -0.01008,0.0115 -0.264555,5.350557 -0.565496,11.864565 -0.539997,11.688745 -0.552466,11.853962 -0.952975,12.632231 -0.223202,0.433721 -0.723637,1.030991 -1.11208,1.327267 -0.388449,0.296277 -0.986739,0.616578 -1.329544,0.711783 -0.388572,0.107918 -3.458817,0.170687 -8.153343,0.16669 -5.966042,-0.0051 -7.664655,-0.05439 -8.178064,-0.237398 z M 73.970102,69.79408 c 0.317017,-0.317018 0.41382,-0.636435 0.494431,-1.631514 0.05515,-0.680529 0.289336,-5.567111 0.52045,-10.859073 0.231115,-5.291963 0.419349,-9.979429 0.418306,-10.416591 l -0.0022,-0.794839 h -9.203443 -9.203415 l -0.0022,0.794839 c -7.2e-4,0.437162 0.18719,5.124628 0.418305,10.416591 0.231114,5.291962 0.46531,10.178544 0.520443,10.859073 0.08062,0.995079 0.177414,1.314496 0.494431,1.631514 l 0.394231,0.394191 h 7.377948 7.37794 z M 59.91531,65.761504 59.504578,65.350774 v -7.210607 -7.210608 l 0.410732,-0.41073 c 0.258911,-0.258908 0.601918,-0.410732 0.927949,-0.410732 0.326031,0 0.669038,0.151824 0.927949,0.410732 l 0.410731,0.41073 v 7.210608 7.210607 l -0.410731,0.41073 c -0.258911,0.258907 -0.601918,0.410731 -0.927949,0.410731 -0.326031,0 -0.669038,-0.151824 -0.927949,-0.410731 z m 5.354715,0 -0.410732,-0.41073 v -7.210607 -7.210608 l 0.410732,-0.41073 c 0.258904,-0.258908 0.601918,-0.410732 0.927949,-0.410732 0.326023,0 0.669037,0.151824 0.927941,0.410732 l 0.410732,0.41073 v 7.210608 7.210607 l -0.410732,0.41073 c -0.258904,0.258907 -0.601918,0.410731 -0.927941,0.410731 -0.326031,0 -0.669045,-0.151824 -0.927949,-0.410731 z m 5.354715,0 -0.410732,-0.41073 v -7.210607 -7.210608 l 0.410732,-0.41073 c 0.258903,-0.258908 0.60191,-0.410732 0.927941,-0.410732 0.326031,0 0.669045,0.151824 0.927949,0.410732 l 0.410732,0.41073 v 7.210608 7.210607 l -0.410732,0.41073 c -0.258904,0.258907 -0.601918,0.410731 -0.927949,0.410731 -0.326031,0 -0.669038,-0.151824 -0.927941,-0.410731 z m 7.621337,-22.605405 c 0,-0.142235 -0.18483,-0.443438 -0.410732,-0.66934 L 77.424614,42.076028 H 66.197974 54.971326 l -0.410724,0.410731 c -0.225902,0.225902 -0.410732,0.527105 -0.410732,0.66934 0,0.23086 1.292742,0.258607 12.048104,0.258607 10.755354,0 12.048103,-0.02775 12.048103,-0.258607 z m -8.032069,-3.849405 c 0,-0.05059 -0.110172,-0.305014 -0.244815,-0.565394 -0.13465,-0.26038 -0.366707,-0.520192 -0.515691,-0.577362 -0.148984,-0.05717 -1.661205,-0.103945 -3.360488,-0.103945 -3.057222,0 -3.093924,0.0043 -3.500343,0.410732 -0.225902,0.225902 -0.410732,0.527105 -0.410732,0.669339 0,0.226071 0.505281,0.258608 4.016035,0.258608 2.208818,0 4.016034,-0.04139 4.016034,-0.09198 z"
           style="display:inline;fill:#008000;fill-opacity:1;fill-rule:nonzero;stroke-width:0.167335"
           id="path5764" /></g><g
         id="layer1-9"
         inkscape:label="marker"
         transform="translate(-9.7640325,-7.641715)"><path
           id="circle1544"
           style="display:inline;opacity:1;fill:#008000;fill-opacity:0.615599;fill-rule:evenodd;stroke:#008000;stroke-width:3;stroke-dasharray:none;stroke-opacity:1"
           d="m 110.70568,55.105335 c 0,35.178709 -36.524215,62.575155 -44.559844,62.575155 -7.315015,0 -44.079433,-25.234609 -44.559841,-62.575155 -0.316592,-24.607685 19.95012,-44.559841 44.559841,-44.559841 24.609722,-2e-6 44.559844,19.950119 44.559844,44.559841 z m -13.970465,0 c 10e-7,16.894048 -13.695331,30.58938 -30.589379,30.58938 -16.894048,0 -30.58938,-13.695332 -30.589379,-30.58938 0,-16.894048 13.695331,-30.589379 30.589379,-30.589379 16.894048,0 30.589379,13.695331 30.589379,30.589379 z"
           sodipodi:nodetypes="ssssssssss" /></g><path
         style="font-size:44.5446px;font-family:'Google Sans';-inkscape-font-specification:'Google Sans';fill:#008000;stroke-width:3.71205"
         d="m 116.10115,25.032083 h 11.44796 q 2.40541,0 4.49901,1.113615 2.13814,1.113615 3.38539,3.073578 1.24725,1.959962 1.24725,4.409915 0,2.316319 -1.20271,4.053559 -1.15816,1.737239 -3.16266,2.672676 v 0.178178 q 2.4054,0.801803 3.91992,2.761766 1.51452,1.959962 1.51452,4.588094 0,2.583587 -1.33634,4.677183 -1.29179,2.049051 -3.51902,3.207211 -2.18269,1.15816 -4.72173,1.15816 h -12.07159 z m 11.44796,13.808827 q 1.60361,0 2.80631,-0.757259 1.24725,-0.757258 1.91542,-1.915418 0.66817,-1.202704 0.66817,-2.449953 0,-1.202704 -0.66817,-2.360863 -0.62362,-1.202705 -1.82633,-1.959963 -1.15816,-0.757258 -2.71722,-0.757258 H 119.8429 V 38.84091 Z m 0.84635,14.476995 q 1.60361,0 2.85086,-0.801803 1.29179,-0.801803 1.95996,-2.049051 0.71271,-1.291794 0.71271,-2.628132 0,-1.336338 -0.71271,-2.583587 -0.71272,-1.291793 -2.00451,-2.049051 -1.29179,-0.801803 -2.98449,-0.801803 h -8.37438 v 10.913427 z m 21.20327,4.320826 q -2.4945,0 -4.45446,-0.979981 -1.95996,-0.979981 -3.02903,-2.672676 -1.06907,-1.737239 -1.06907,-3.919925 0,-3.608113 2.71722,-5.61262 2.71722,-2.049051 6.85987,-2.049051 2.04905,0 3.78629,0.445446 1.78178,0.445446 2.71722,1.024526 v -1.380883 q 0,-2.539042 -1.78179,-4.053559 -1.78178,-1.559061 -4.499,-1.559061 -1.91542,0 -3.51902,0.846348 -1.60361,0.801802 -2.53905,2.271774 l -2.85085,-2.138141 q 1.33634,-2.049051 3.65266,-3.207211 2.36086,-1.15816 5.21171,-1.15816 4.63264,0 7.26077,2.449953 2.67268,2.405409 2.67268,6.592601 v 14.387907 h -3.60811 v -3.251756 h -0.17818 q -0.97998,1.64815 -2.93994,2.80631 -1.95997,1.158159 -4.40992,1.158159 z m 0.35636,-3.340845 q 1.91542,0 3.56357,-0.979981 1.64815,-0.979981 2.62813,-2.628131 0.97998,-1.648151 0.97998,-3.608113 -1.06907,-0.712714 -2.62813,-1.15816 -1.55906,-0.445446 -3.2963,-0.445446 -3.11813,0 -4.72173,1.291794 -1.55906,1.291793 -1.55906,3.340845 0,1.870873 1.42542,3.029033 1.42543,1.158159 3.60812,1.158159 z m 23.74231,3.340845 q -3.65265,0 -6.10261,-1.692694 -2.44995,-1.73724 -3.47448,-4.409916 l 3.38539,-1.514516 q 0.84635,2.049051 2.4945,3.162666 1.6927,1.113615 3.6972,1.113615 2.13814,0 3.65266,-0.846347 1.51452,-0.890892 1.51452,-2.494498 0,-1.425427 -1.20271,-2.271775 -1.2027,-0.890892 -3.78629,-1.514516 l -2.76176,-0.712714 q -2.71722,-0.668169 -4.45446,-2.271774 -1.73724,-1.603606 -1.73724,-4.142648 0,-1.959963 1.15816,-3.429934 1.2027,-1.514517 3.16266,-2.31632 1.95997,-0.801803 4.23174,-0.801803 2.98449,0 5.30081,1.291794 2.36086,1.291793 3.34084,3.608113 l -3.2963,1.514516 q -1.51451,-3.029033 -5.38989,-3.029033 -1.87088,0 -3.2963,0.890892 -1.38089,0.846348 -1.38089,2.182686 0,1.247248 0.97998,2.049051 0.97999,0.757259 2.93995,1.247249 l 3.2963,0.846348 q 3.34084,0.846347 5.03354,2.539042 1.69269,1.64815 1.69269,4.053559 0,2.093596 -1.2027,3.697201 -1.20271,1.559062 -3.25176,2.405409 -2.04905,0.846347 -4.54355,0.846347 z m 13.14064,-32.606648 h 3.78629 v 20.045071 l 10.69071,-10.868883 h 4.81081 v 0.178178 l -8.90892,8.99801 9.13165,13.36338 v 0.178179 h -4.49901 l -7.30531,-10.913428 -3.91993,3.919925 v 6.993503 h -3.78629 z m 31.93848,32.606648 q -3.25176,0 -5.83535,-1.559061 -2.58358,-1.559061 -4.05356,-4.276281 -1.42542,-2.761766 -1.42542,-6.1917 0,-3.296301 1.33634,-6.058066 1.38088,-2.761765 3.87538,-4.409915 2.49449,-1.648151 5.79079,-1.648151 3.34085,0 5.7908,1.514517 2.44996,1.469972 3.74175,4.098103 1.33634,2.628132 1.33634,6.013521 0,0.668169 -0.13364,1.15816 h -17.95147 q 0.13363,2.583587 1.24725,4.365371 1.11361,1.781784 2.80631,2.672676 1.73724,0.890892 3.60811,0.890892 4.36537,0 6.72623,-4.098103 l 3.20722,1.559061 q -1.46998,2.761765 -4.00902,4.365371 -2.4945,1.603605 -6.05806,1.603605 z m 6.54805,-14.476995 q -0.0891,-1.425427 -0.8018,-2.850855 -0.71271,-1.425427 -2.27178,-2.405408 -1.51451,-0.979981 -3.83083,-0.979981 -2.67268,0 -4.54355,1.737239 -1.82633,1.692695 -2.40541,4.499005 z m 16.48152,14.120639 q -1.38089,0 -2.58359,-0.445446 -1.15816,-0.445446 -1.95996,-1.202705 -0.89089,-0.846347 -1.33634,-1.959962 -0.44545,-1.113615 -0.44545,-2.717221 V 37.638205 h -3.96447 v -3.429934 h 3.96447 v -6.414423 h 3.78629 v 6.414423 h 5.52354 v 3.429934 h -5.52354 v 12.3834 q 0,1.870873 0.71272,2.761765 0.84635,0.979981 2.44995,0.979981 1.29179,0 2.4945,-0.757258 v 3.697202 q -0.66817,0.311812 -1.38088,0.445446 -0.66817,0.133634 -1.73724,0.133634 z"
         id="text1"
         aria-label="Basket" /><path
         style="font-size:44.5446px;font-family:'Google Sans';-inkscape-font-specification:'Google Sans';fill:#008000;stroke-width:3.71205"
         d="m 116.10115,61.388956 h 18.44147 v 3.608112 H 119.8429 v 10.913428 h 13.27429 v 3.563568 H 119.8429 V 93.28289 h -3.74175 z m 24.67771,4.988995 q -1.11362,0 -1.91542,-0.801803 -0.80181,-0.801803 -0.80181,-1.915418 0,-1.113615 0.80181,-1.870873 0.8018,-0.801803 1.91542,-0.801803 1.11361,0 1.91541,0.801803 0.80181,0.757258 0.80181,1.870873 0,1.113615 -0.80181,1.915418 -0.75725,0.801803 -1.91541,0.801803 z m -1.87088,4.187193 h 3.74175 V 93.28289 h -3.74175 z m 9.71072,0 h 3.60811 v 3.340845 h 0.17818 q 0.93544,-1.692695 2.98449,-2.850855 2.04905,-1.202704 4.36537,-1.202704 4.0981,0 6.23624,2.405408 2.18269,2.360864 2.18269,6.458968 V 93.28289 h -3.78629 V 79.295885 q 0,-3.162666 -1.51452,-4.588093 -1.51451,-1.425428 -4.14265,-1.425428 -1.82632,0 -3.2963,1.024526 -1.42542,1.024526 -2.22723,2.717221 -0.8018,1.64815 -0.8018,3.474479 v 12.7843 h -3.78629 z m 34.61119,23.43046 q -3.02903,0 -5.52353,-1.559061 -2.44996,-1.559061 -3.87538,-4.276282 -1.42543,-2.761765 -1.42543,-6.236244 0,-3.429934 1.42543,-6.1917 1.42542,-2.761765 3.87538,-4.320826 2.4945,-1.559061 5.52353,-1.559061 2.62813,0 4.67718,1.202704 2.04905,1.15816 3.11812,2.895399 h 0.17818 l -0.17818,-3.162666 v -9.398911 h 3.78629 V 93.28289 h -3.60811 v -3.340845 h -0.17818 q -1.06907,1.692695 -3.11812,2.895399 -2.04905,1.15816 -4.67718,1.15816 z m 0.44544,-3.429934 q 2.00451,0 3.69721,-1.069071 1.73724,-1.06907 2.76176,-3.029033 1.06907,-1.959962 1.06907,-4.543549 0,-2.583587 -1.06907,-4.543549 -1.02452,-1.959963 -2.76176,-3.029033 -1.6927,-1.069071 -3.69721,-1.069071 -1.95996,0 -3.6972,1.069071 -1.73724,1.06907 -2.80631,3.073577 -1.02452,1.959963 -1.02452,4.499005 0,2.539042 1.02452,4.543549 1.06907,1.959963 2.80631,3.029033 1.73724,1.069071 3.6972,1.069071 z m 26.63768,3.429934 q -3.25175,0 -5.83534,-1.559061 -2.58358,-1.559061 -4.05356,-4.276282 -1.42542,-2.761765 -1.42542,-6.191699 0,-3.296301 1.33633,-6.058066 1.38089,-2.761766 3.87538,-4.409916 2.4945,-1.64815 5.7908,-1.64815 3.34085,0 5.7908,1.514516 2.44995,1.469972 3.74175,4.098104 1.33634,2.628131 1.33634,6.013521 0,0.668169 -0.13364,1.15816 h -17.95147 q 0.13363,2.583586 1.24725,4.365371 1.11361,1.781784 2.80631,2.672676 1.73724,0.890892 3.60811,0.890892 4.36537,0 6.72623,-4.098104 l 3.20721,1.559061 q -1.46997,2.761766 -4.00901,4.365371 -2.4945,1.603606 -6.05807,1.603606 z m 6.54806,-14.476996 q -0.0891,-1.425427 -0.8018,-2.850854 -0.71272,-1.425427 -2.27178,-2.405408 -1.51451,-0.979982 -3.83083,-0.979982 -2.67268,0 -4.54355,1.73724 -1.82633,1.692695 -2.40541,4.499004 z m 8.41892,-8.953464 h 3.60811 v 3.652657 h 0.17818 q 0.66817,-1.870873 2.58359,-3.073578 1.91541,-1.247248 4.00901,-1.247248 1.55906,0 2.67268,0.445446 v 4.098103 q -1.42543,-0.712714 -3.20721,-0.712714 -1.64815,0 -3.02904,0.935437 -1.38088,0.935437 -2.22723,2.539042 -0.8018,1.559061 -0.8018,3.38539 V 93.28289 h -3.78629 z"
         id="text2"
         aria-label="Finder" /></g></g></svg>
